<svg version="1.0" xmlns="http://www.w3.org/2000/svg"
  width="499.000000pt" height="499.000000pt" viewBox="0 0 499.000000 499.000000"
  preserveAspectRatio="xMidYMid meet">

  <g transform="translate(0.000000,499.000000) scale(0.100000,-0.100000)"
  fill="#000000" stroke="none">
  <path d="M968 3570 c-104 -6 -144 -19 -123 -39 6 -5 85 -7 178 -4 135 5 170 9
  174 20 13 33 -15 36 -229 23z"/>
  <path d="M1381 3545 c4 -16 27 -22 179 -42 197 -26 399 -63 540 -98 78 -20 97
  -22 108 -11 20 20 0 30 -103 54 -230 54 -481 96 -639 108 -82 7 -88 6 -85 -11z"/>
  <path d="M2500 3312 c0 -13 24 -25 98 -50 253 -87 532 -210 717 -317 174 -100
  277 -177 391 -290 92 -92 117 -123 150 -189 35 -72 39 -88 39 -155 0 -63 -5
  -86 -28 -132 -37 -75 -151 -183 -238 -227 -237 -116 -636 -115 -1089 2 -550
  142 -1030 438 -1030 635 0 84 82 156 230 203 68 21 94 23 267 23 105 0 194 -3
  197 -6 4 -3 -5 -26 -19 -50 -47 -84 -29 -146 54 -189 111 -55 319 -97 387 -78
  94 26 127 136 77 257 -67 160 -275 222 -419 125 l-38 -26 -131 10 c-266 22
  -469 -22 -578 -127 -51 -48 -67 -81 -67 -138 0 -168 219 -357 610 -526 508
  -220 1066 -301 1425 -207 176 47 338 166 401 295 60 124 40 266 -55 402 -181
  257 -654 544 -1209 734 -128 44 -142 46 -142 21z m12 -444 c51 -15 126 -82
  149 -133 10 -22 19 -63 19 -92 0 -42 -5 -58 -27 -84 -27 -31 -27 -32 -103 -26
  -143 9 -312 68 -339 118 -13 24 -13 31 5 70 55 124 175 184 296 147z"/>
  <path d="M1560 3169 c-186 -17 -391 -85 -498 -164 -265 -194 -222 -502 111
  -793 175 -154 559 -370 877 -495 279 -110 660 -196 1090 -247 213 -26 527 -48
  542 -39 6 4 8 13 5 21 -4 11 -33 16 -119 21 -265 16 -647 64 -892 112 -365 73
  -621 161 -959 331 -556 279 -847 601 -774 855 74 252 436 389 953 358 380 -22
  805 -144 1208 -346 210 -105 328 -199 377 -299 30 -60 31 -67 20 -104 -32
  -106 -179 -189 -367 -206 -61 -6 -74 -10 -72 -23 7 -39 188 -16 303 38 113 52
  184 138 185 221 0 46 -38 124 -87 180 -123 137 -464 315 -843 438 -382 124
  -733 171 -1060 141z"/>
  <path d="M1910 2692 c-29 -14 -36 -23 -38 -54 -2 -20 4 -50 12 -66 101 -196
  908 -372 1148 -251 85 43 81 140 -8 219 -58 50 -144 102 -160 96 -26 -10 -13
  -31 43 -66 107 -68 161 -138 136 -179 -5 -9 -28 -26 -52 -38 -184 -94 -878 44
  -1042 208 -66 66 -43 109 57 109 27 0 34 4 34 20 0 17 -7 20 -47 20 -27 0 -64
  -8 -83 -18z"/>
  <path d="M3783 1445 c-3 -9 -3 -18 0 -21 12 -12 346 -9 358 3 27 27 -4 33
  -177 33 -148 0 -176 -2 -181 -15z"/>
  </g>
  </svg>